{"title":"Hailee Steinfeld - Love Myself (2015.Pop)","uid":12276102,"size":102668230,"categoryP":"video","categoryS":"music_videos","magnet":"?xt=urn:btih:064cce5a421b43e82d4c706b1dee8f4c14b47862&amp;dn=Hailee+Steinfeld+-+Love+Myself+%282015.Pop%29&amp;tr=udp%3A%2F%2Ftracker.openbittorrent.com%3A80&amp;tr=udp%3A%2F%2Fopen.demonii.com%3A1337&amp;tr=udp%3A%2F%2Ftracker.coppersurfer.tk%3A6969&amp;tr=udp%3A%2F%2Fexodus.desync.com%3A6969","seeders":14,"leechers":2,"uploader":"MeRaDil","files":1,"time":1440354748,"description":"HAILEE STEINFELD - LOVE MYSELF\n\n &lt;a href=&quot;\nhttp://ultraimg.com/images/Hailee-2.png&quot; rel=&quot;nofollow&quot; target=&quot;_NEW&quot;&gt;\nhttp://ultraimg.com/images/Hailee-2.png&lt;/a&gt;\n &lt;a href=&quot;\nhttp://ultraimg.com/images/Hailee-3.png&quot; rel=&quot;nofollow&quot; target=&quot;_NEW&quot;&gt;\nhttp://ultraimg.com/images/Hailee-3.png&lt;/a&gt;\n &lt;a href=&quot;\nhttp://ultraimg.com/images/Hailee-4.png&quot; rel=&quot;nofollow&quot; target=&quot;_NEW&quot;&gt;\nhttp://ultraimg.com/images/Hailee-4.png&lt;/a&gt;\n\n\nGeneral\nHailee Steinfeld - Love Myself\nFormat                                   : MPEG-4\nFormat profile                           : Base Media\nCodec ID                                 : isom\nFile size                                : 97.9 MiB\nDuration                                 : 4mn 0s\nOverall bit rate                         : 3 420 Kbps\nMusicVid name                            : Love Myself\nPerformer                                : Hailee Steinfeld\nGenre                                    : Pop\nContentType                              : Music Video\nRecorded date                            : 2015\nCover                                    : Yes\nRating                                   : ****\nMake                                     : MeRaDil\nRelease date                             : USA . august 14 . 2015\nPart_ID                                  : Love Myself\n &lt;a href=&quot;\nhttps://thepiratebay.se/user/MeRaDil&quot; rel=&quot;nofollow&quot; target=&quot;_NEW&quot;&gt;\nhttps://thepiratebay.se/user/MeRaDil&lt;/a&gt;\n\nVideo\nID                                       : 1\nFormat                                   : AVC\nFormat/Info                              : Advanced Video Codec\nFormat profile                           : &lt;a class=&quot;__cf_email__&quot; href=&quot;/cdn-cgi/l/email-protection&quot; data-cfemail=&quot;d39bbab4bb939fe7fde3&quot;&gt;[email&amp;#160;protected]&lt;/a&gt;&lt;script data-cfhash='f9e31' type=&quot;text/javascript&quot;&gt;\n/* &lt;![CDATA[ */!function(){try{var t=&quot;currentScript&quot;in document?document.currentScript:function(){for(var t=document.getElementsByTagName(&quot;script&quot;),e=t.length;e--;)if(t[e].getAttribute(&quot;data-cfhash&quot;))return t[e]}();if(t&amp;&amp;t.previousSibling){var e,r,n,i,c=t.previousSibling,a=c.getAttribute(&quot;data-cfemail&quot;);if(a){for(e=&quot;&quot;,r=parseInt(a.substr(0,2),16),n=2;a.length-n;n+=2)i=parseInt(a.substr(n,2),16)^r,e+=String.fromCharCode(i);e=document.createTextNode(e),c.parentNode.replaceChild(e,c)}t.parentNode.removeChild(t);}}catch(u){}}()/* ]]&gt; */&lt;/script&gt;\nFormat settings, CABAC                   : Yes\nFormat settings, ReFrames                : 2 frames\nCodec ID                                 : avc1\nCodec ID/Info                            : Advanced Video Coding\nDuration                                 : 4mn 0s\nBit rate                                 : 3 146 Kbps\nWidth                                    : 1 920 pixels\nHeight                                   : 1 080 pixels\nDisplay aspect ratio                     : 16:9\nFrame rate mode                          : Variable\nFrame rate                               : 23.976 fps\nMinimum frame rate                       : 23.974 fps\nMaximum frame rate                       : 23.981 fps\nColor space                              : YUV\nChroma subsampling                       : 4:2:0\nBit depth                                : 8 bits\nScan type                                : Progressive\nBits/(Pixel*Frame)                       : 0.063\nStream size                              : 90.0 MiB (92%)\n\nAudio\nID                                       : 2\nFormat                                   : AAC\nFormat/Info                              : Advanced Audio Codec\nFormat profile                           : LC\nCodec ID                                 : 40\nDuration                                 : 4mn 0s\nBit rate mode                            : Constant\nBit rate                                 : 256 Kbps\nChannel(s)                               : 2 channels\nChannel positions                        : Front: L R\nSampling rate                            : 44.1 KHz\nCompression mode                         : Lossy\nStream size                              : 7.33 MiB (7%)\n\nHailee Steinfeld * Actress/Singer * Pop * Promo","torrent":{"xt":"urn:btih:064cce5a421b43e82d4c706b1dee8f4c14b47862","amp;dn":"Hailee+Steinfeld+-+Love+Myself+%282015.Pop%29","amp;tr":["udp%3A%2F%2Ftracker.openbittorrent.com%3A80","udp%3A%2F%2Fopen.demonii.com%3A1337","udp%3A%2F%2Ftracker.coppersurfer.tk%3A6969","udp%3A%2F%2Fexodus.desync.com%3A6969"],"infoHash":"064cce5a421b43e82d4c706b1dee8f4c14b47862","infoHashBuffer":{"type":"Buffer","data":[6,76,206,90,66,27,67,232,45,76,112,107,29,238,143,76,20,180,120,98]},"announce":[],"urlList":[]}}